<svg width="16" height="16" viewBox="0 0 16 16" fill="none" xmlns="http://www.w3.org/2000/svg">
<path d="M4.40332 11.1025C4.07454 11.1025 3.7946 11.0391 3.56348 10.9121C3.33236 10.7819 3.13867 10.5947 2.98242 10.3506L2.87988 11H1.64941V4.38867L0.892578 4.24219V3.38281H3.07031V6.27832C3.22331 6.06673 3.41048 5.90397 3.63184 5.79004C3.85645 5.67611 4.11686 5.61914 4.41309 5.61914C4.83952 5.61914 5.20085 5.7347 5.49707 5.96582C5.79655 6.19368 6.02441 6.51595 6.18066 6.93262C6.33691 7.34928 6.41504 7.83919 6.41504 8.40234V8.50488C6.41504 9.02897 6.33691 9.48633 6.18066 9.87695C6.02441 10.2643 5.79655 10.5654 5.49707 10.7803C5.19759 10.9951 4.83301 11.1025 4.40332 11.1025ZM3.96875 9.99414C4.33333 9.99414 4.59538 9.86556 4.75488 9.6084C4.91439 9.34798 4.99414 8.98014 4.99414 8.50488V8.40234C4.99414 8.05729 4.95833 7.76107 4.88672 7.51367C4.81836 7.26302 4.70931 7.06934 4.55957 6.93262C4.41309 6.7959 4.22103 6.72754 3.9834 6.72754C3.76855 6.72754 3.58464 6.77799 3.43164 6.87891C3.27865 6.97982 3.1582 7.11654 3.07031 7.28906V9.49609C3.16797 9.65885 3.29167 9.78255 3.44141 9.86719C3.5944 9.95182 3.77018 9.99414 3.96875 9.99414Z" fill="black"/>
<path d="M8.58691 6.7666V11H7.67871V5.7168H8.53809L8.58691 6.7666ZM8.40137 8.1582L7.98145 8.14355C7.9847 7.78223 8.0319 7.44857 8.12305 7.14258C8.21419 6.83333 8.34928 6.56478 8.52832 6.33691C8.70736 6.10905 8.93034 5.93327 9.19727 5.80957C9.46419 5.68262 9.77344 5.61914 10.125 5.61914C10.3724 5.61914 10.6003 5.65495 10.8086 5.72656C11.0169 5.79492 11.1976 5.90397 11.3506 6.05371C11.5036 6.20345 11.6224 6.39551 11.707 6.62988C11.7917 6.86426 11.834 7.14746 11.834 7.47949V11H10.9307V7.52344C10.9307 7.24674 10.8835 7.02539 10.7891 6.85938C10.6979 6.69336 10.5677 6.57292 10.3984 6.49805C10.2292 6.41992 10.0306 6.38086 9.80273 6.38086C9.53581 6.38086 9.31283 6.42806 9.13379 6.52246C8.95475 6.61686 8.81152 6.74707 8.7041 6.91309C8.59668 7.0791 8.51855 7.26953 8.46973 7.48438C8.42415 7.69596 8.40137 7.92057 8.40137 8.1582ZM11.8242 7.66016L11.2188 7.8457C11.222 7.55599 11.2692 7.27767 11.3604 7.01074C11.4548 6.74382 11.5898 6.50618 11.7656 6.29785C11.9447 6.08952 12.1644 5.92513 12.4248 5.80469C12.6852 5.68099 12.9831 5.61914 13.3184 5.61914C13.6016 5.61914 13.8522 5.65658 14.0703 5.73145C14.2917 5.80632 14.4772 5.92188 14.627 6.07812C14.7799 6.23112 14.8955 6.42806 14.9736 6.66895C15.0518 6.90983 15.0908 7.19629 15.0908 7.52832V11H14.1826V7.51855C14.1826 7.22233 14.1354 6.99284 14.041 6.83008C13.9499 6.66406 13.8197 6.5485 13.6504 6.4834C13.4844 6.41504 13.2858 6.38086 13.0547 6.38086C12.8561 6.38086 12.6803 6.41504 12.5273 6.4834C12.3743 6.55176 12.2458 6.64616 12.1416 6.7666C12.0374 6.88379 11.9577 7.01888 11.9023 7.17188C11.8503 7.32487 11.8242 7.48763 11.8242 7.66016Z" fill="black"/>
</svg>
